<?xml version="1.0" encoding="utf-8"?>
<svg xmlns="http://www.w3.org/2000/svg" height="28" width="28" viewBox="0 0 28 28">
  <g>
    <path id="path1" transform="rotate(0,14,14) translate(0,5.36156495580464) scale(0.875000052154067,0.875000052154067)  " fill="#000000" d="M18.782438,9.9638113E-05C19.432438,-0.0029063734 19.845443,0.063102809 19.845443,0.063102697 27.017511,0.58009841 27.351515,7.9140603 27.351515,7.9140603 37.810604,13.855023 27.351515,19.744993 27.351515,19.744993L5.0483157,19.744993C-0.7937388,18.813005 0.041267657,13.288026 0.041267803,13.288026 0.094269527,8.173061 4.6603119,7.7610609 4.6603119,7.7610609 4.769314,4.7650744 6.9373324,4.0410792 6.9373324,4.0410792 9.8303554,3.0090867 11.612369,4.4030768 11.612369,4.4030768 13.36639,0.5340934 16.984419,0.0071033405 18.782438,9.9638113E-05z" />
  </g>
</svg>

