<?xml version="1.0" encoding="utf-8"?>
<svg xmlns="http://www.w3.org/2000/svg" height="24" width="24" viewBox="0 0 24 24">
  <g>
    <path id="path1" transform="rotate(0,12,12) translate(1.59999723434448,3.17493199704445) scale(0.650001296403265,0.650001296403265)  " fill="#000000" d="M9.9749223,22.257L31.999921,22.257 31.999921,24.259 9.9749223,24.259z M3.5359893,22.089987C2.689992,22.089987 2.0019937,22.776989 2.0019937,23.620991 2.0019937,24.464994 2.689992,25.151996 3.5359893,25.151996 4.3819866,25.151996 5.0699844,24.464994 5.0699844,23.620991 5.0699844,22.776989 4.3819866,22.089987 3.5359893,22.089987z M3.5359893,20.087981C5.4859834,20.087981 7.0719786,21.672986 7.071979,23.620991 7.0719786,25.568997 5.4859834,27.154002 3.5359893,27.154002 1.5859947,27.154002 0,25.568997 0,23.620991 0,21.672986 1.5859947,20.087981 3.5359893,20.087981z M9.9749685,12.246034L31.999944,12.246034 31.999944,14.248019 9.9749685,14.248019z M3.5359893,12.04601C2.689992,12.04601 2.0019937,12.733006 2.0019937,13.577001 2.0019937,14.420996 2.689992,15.107992 3.5359893,15.107992 4.3819866,15.107992 5.0699844,14.420996 5.0699844,13.577001 5.0699844,12.733006 4.3819866,12.04601 3.5359893,12.04601z M3.5359893,10.044021C5.4859834,10.044021 7.0719786,11.629012 7.071979,13.577001 7.0719786,15.52499 5.4859834,17.109981 3.5359893,17.109981 1.5859947,17.109981 0,15.52499 0,13.577001 0,11.629012 1.5859947,10.044021 3.5359893,10.044021z M9.9749685,2.2350197L31.999944,2.2350197 31.999944,4.2370052 9.9749685,4.2370052z M3.5359893,2.0020065C2.689992,2.0020065 2.0019937,2.6890087 2.0019937,3.5330105 2.0019937,4.3770123 2.689992,5.0640144 3.5359893,5.0640144 4.3819866,5.0640144 5.0699844,4.3770123 5.0699844,3.5330105 5.0699844,2.6890087 4.3819866,2.0020065 3.5359893,2.0020065z M3.5359893,0C5.4859834,0 7.0719786,1.5850048 7.071979,3.5330105 7.0719786,5.4810162 5.4859834,7.066021 3.5359893,7.066021 1.5859947,7.066021 0,5.4810162 0,3.5330105 0,1.5850048 1.5859947,0 3.5359893,0z" />
  </g>
</svg>

