<?xml version="1.0" encoding="utf-8"?>
<svg xmlns="http://www.w3.org/2000/svg" height="24" width="24" viewBox="0 0 24 24">
  <g>
    <path id="path1" transform="rotate(0,12,12) translate(0,2.25036817832968) scale(0.750000894070737,0.750000894070737)  " fill="#000000" d="M27.157948,18.718227L27.163929,23.28506 29.68395,21.004161z M10.814965,12.711005L12.276961,14.076004 6.6639786,20.084999C5.5199833,21.303998,4.0369873,22.000997,2.5939922,22.000997L0,22.000997 0,20.000998 2.5939922,20.000998C3.4869881,20.000998,4.4379864,19.532999,5.2039833,18.718z M0,4.0009966L3.6659985,4.0009966C5.4319992,4.0009966,6.7619991,4.5039968,7.7339973,5.5389967L19.986995,18.721997C20.748995,19.532997,21.699995,20.000997,22.592995,20.000997L25.159177,20.000997 25.155931,17.38328C25.155931,16.834287 25.473925,16.353316 25.985888,16.126303 26.510913,15.890319 27.12389,15.988307 27.545948,16.37129L31.547904,19.993177C31.834892,20.252172 31.999931,20.620171 31.999931,21.004161 31.999931,21.387144 31.834892,21.755112 31.546928,22.015113L27.553944,25.629982C27.2849,25.872986 26.938892,25.998988 26.587939,25.998988 26.386889,25.998988 26.184924,25.957974 25.994921,25.873993 25.483935,25.64698 25.165941,25.166009 25.164903,24.61903L25.161657,22.000997 22.592995,22.000997C21.150995,22.000997,19.667995,21.303997,18.525996,20.086997L6.2729988,6.9039965C5.6949978,6.2889967,4.8649979,6.0009966,3.6659985,6.0009966L0,6.0009966z M27.157957,2.7188759L27.163957,7.2859459 29.683959,5.0049105z M26.599729,0.00016784668C26.944378,0.0054121017,27.282582,0.133461,27.546957,0.37283993L31.54796,3.9938955C31.83496,4.2528992 31.999961,4.6209049 31.999961,5.003911 31.999961,5.3879166 31.83496,5.7559223 31.54696,6.0159264L27.553957,9.6309814C27.284957,9.8739848 26.938956,9.9999871 26.587956,9.9999871 26.386956,9.9999871 26.184956,9.9589863 25.994956,9.8749852 25.483955,9.6479816 25.165955,9.1669741 25.164955,8.619966L25.161698,6.0009918 21.521991,6.0009918C20.321988,6.0009918,19.492987,6.2889919,18.911986,6.9079924L14.398977,11.780993 12.930975,10.421993 17.448983,5.543992C18.424985,4.5039921,19.755987,4.0009918,21.521991,4.0009918L25.15921,4.0009918 25.155955,1.3838558C25.155955,0.83484745 25.473955,0.35283947 25.986955,0.12583637 26.183831,0.038084984 26.39294,-0.0029792786 26.599729,0.00016784668z" />
  </g>
</svg>

