<?xml version="1.0" encoding="utf-8"?>
<svg xmlns="http://www.w3.org/2000/svg" height="24" width="24" viewBox="0 0 24 24">
  <g>
    <path id="path1" transform="rotate(0,12,12) translate(0,1.16588265339503) scale(0.749765916236088,0.749765916236088)  " fill="#000000" d="M9.3001308,7.4000008C9.3001308,7.4999993 9.200138,7.4999993 9.200138,7.5999978 10.800154,11.099998 13.300193,13.800002 15.800231,16.400001 15.700238,16.599998 15.600231,16.900001 15.600231,17.199996 15.600231,17.599998 15.700238,17.999999 16.000247,18.300002 15.100223,18.999999 14.500223,19.999999 13.900207,20.999999 13.300193,21.900001 12.400185,22.999999 12.500193,24.400001 13.700208,24.099998 14.400215,22.999999 15.100223,22.099998 15.800231,21.099998 16.400247,20.099998 16.900254,18.999999 17.100253,18.999999 17.200261,19.099998 17.400262,19.099998 18.400277,19.099998 19.200292,18.300002 19.200292,17.300002 19.200292,16.300002 18.400277,15.499999 17.400262,15.499999 17.000262,15.499999 16.700253,15.599998 16.400247,15.800002 14.400215,12.699996 12.300177,9.5999978 9.3001308,7.4999993 9.4001388,7.4000008 9.3001308,7.4000008 9.3001308,7.4000008z M15.500238,4.0999983L16.200246,4.0999983C20.400308,4.0999983 23.200354,5.799999 25.300378,7.9999993 27.200416,9.9999993 28.700438,12.999999 28.700438,16.599998 28.60043,20.199996 27.100408,23.099998 25.300378,25.099998 23.500361,26.999997 20.500316,28.699994 17.100253,28.899999L15.600231,28.899999C11.900177,28.699994 9.3001308,26.899999 7.4001078,24.999999 5.5000848,23.099998 4.0000614,19.999999 4.0000614,16.499999 4.0000614,12.800002 5.4000768,9.9999993 7.4001078,7.9000008 9.3001308,5.9000013 12.100177,4.299999 15.500238,4.0999983z M16.200246,0.59999833C17.000262,0.59999833 17.700269,1.299999 17.700269,2.0999983 17.700269,2.9000013 17.000262,3.5999983 16.200246,3.599998 15.40023,3.5999983 14.700223,2.9000013 14.700223,2.0999983 14.700223,1.299999 15.40023,0.59999833 16.200246,0.59999833z M6.1000847,0.40000141L7.2001075,0.40000141C9.200138,0.70000062,10.600154,1.4000013,11.600169,2.7000003L1.700023,11.400001C0.70000771,10.499999,0.20000002,9.2000001,0,7.5999978L0,6.4999993C0.60000006,2.9999998,2.6000308,0.90000138,6.1000847,0.40000141z M24.800368,0L25.900391,0C29.200446,0.40000141 31.900485,2.9000013 32.000491,6.4000008 32.100486,8.2999986 31.400477,9.7999986 30.400462,10.999999 27.000415,8.0999978 23.700362,5.2000006 20.400308,2.2999988 21.400323,1.0999983 22.800338,0.29999912 24.800368,0z" />
  </g>
</svg>

