<?xml version="1.0" encoding="utf-8"?>
<svg xmlns="http://www.w3.org/2000/svg" height="24" width="24" viewBox="0 0 24 24">
  <g>
    <path id="path1" transform="rotate(0,12,12) translate(2.80250024795532,1.6) scale(0.65,0.65)  " fill="#000000" d="M3.7000097,2.6999969C3.3000163,2.6999969,2.999998,3,2.999998,3.3999939L2.999998,28.699997C2.999998,29.099991,3.3000163,29.399994,3.7000097,29.399994L24.599991,29.399994C24.999983,29.399994,25.300001,29.099991,25.300001,28.699997L25.300001,11.899994 21.300005,12C16.599995,12.5,16.300007,8.5999908,16.300007,8.5999908L16.099996,2.6999969z M3.7000097,0L16.300007,0 18.999988,2.5 18.999988,2.5999908 21.199999,4.6999969 19.099995,2.6999969 26.800001,10.099991 28.299999,11.5 28.299999,28.599991C28.299999,30.5,26.599989,32,24.599991,32L3.7000097,32C1.7000112,32,8.8097295E-08,30.5,0,28.599991L0,3.3999939C8.8097295E-08,1.5,1.7000112,0,3.7000097,0z" />
  </g>
</svg>

