<?xml version="1.0" encoding="utf-8"?>
<svg xmlns="http://www.w3.org/2000/svg" height="28" width="28" viewBox="0 0 28 28">
  <g>
    <path id="path1" transform="rotate(0,14,14) translate(8.50374984741211,6) scale(0.5,0.5)  " fill="#000000" d="M12.61799,18.807996L12.61799,24.108986C14.800975,23.853981 15.893993,23.018991 15.893993,21.60798 15.893993,20.462993 14.800975,19.533001 12.61799,18.807996z M9.2749698,7.3460013C7.1519825,7.6410143 6.0919845,8.486015 6.0919845,9.8870141 6.0919845,11.086995 7.1519825,12.086994 9.2749698,12.892016z M9.2749698,0L12.61799,0 12.61799,3.1800203C15.839,3.3010222,18.245009,3.6960108,19.831984,4.3709981L19.831984,9.0959994C17.695019,8.1060101,15.291027,7.4959952,12.61799,7.275994L12.61799,13.906999C15.961986,14.831986 18.359023,15.882003 19.808974,17.068008 21.258988,18.253004 21.985001,19.682995 21.985001,21.362985 21.985001,23.29899 21.177018,24.859016 19.558974,26.044012 17.938977,27.229009 15.627025,27.948978 12.61799,28.203983L12.61799,32 9.2749698,32 9.2749698,28.308963C6.1749923,28.299015,3.291018,27.763981,0.61798145,26.69898L0.61798145,21.853006C1.5039684,22.402994 2.8250143,22.909006 4.5799596,23.379005 6.336003,23.844001 7.9010069,24.108986 9.2749698,24.178993L9.2749698,17.813001C5.7019693,16.797989 3.2639794,15.697007 1.9580092,14.51201 0.65197809,13.327014 7.8710173E-08,11.887012 0,10.181997 7.8710173E-08,8.3510053 0.84698553,6.7910091 2.541994,5.501002 4.2370026,4.2110249 6.4809615,3.4610257 9.2749698,3.2510037z" />
  </g>
</svg>

