<?xml version="1.0" encoding="utf-8"?>
<svg xmlns="http://www.w3.org/2000/svg" height="24" width="24" viewBox="0 0 24 24">
  <g>
    <path id="path1" transform="rotate(0,12,12) translate(7.39181220531464,6) scale(0.375,0.375)  " fill="#000000" d="M8.1260291,24.074982C7.6240154,24.677002 7.2230149,25.679993 7.6240154,26.483002 8.3260413,27.686981 10.33202,27.285004 11.837024,27.285004L11.837024,24.074982z M14.144028,22.971985C13.642991,23.975006 13.041001,24.776978 12.538988,25.781006 13.041001,26.682983 13.542039,27.686981 14.144028,28.588989L14.144028,27.285004C15.749006,27.485992 16.952985,26.884003 16.952985,25.579987 16.952985,24.877991 16.65202,24.47699 16.350995,23.975006L14.043991,23.975006C14.144028,23.673981,14.144028,23.27298,14.144028,22.971985z M8.5270291,19.561005C7.5240398,19.66098 6.520989,19.66098 5.4170475,19.66098 5.7180114,19.962006 6.1190119,20.062988 6.3200007,20.263 6.0190363,20.966003 5.3170109,21.566986 5.3170109,22.269989 5.3170109,22.67099 5.6180358,23.071991 5.818048,23.372986 6.2200251,24.175995 6.8210373,25.178986 7.2230149,25.880981 7.1220017,25.47998 7.32299,25.178986 7.32299,24.877991 7.9250403,23.875 8.4260159,22.871002 9.1290188,21.867981 9.4300433,21.968994 9.6299944,22.169006 9.9310198,22.369995 9.5300188,21.46698 9.0280056,20.563995 8.5270291,19.561005z M17.353986,18.858978C16.452008,19.460999 15.548994,19.962006 14.546005,20.463989 14.947005,21.265991 15.348006,21.968994 15.850019,22.770996 16.350995,23.673981 16.952985,24.576996 17.053021,25.781006 17.353986,25.178986 17.655011,24.677002 18.056987,23.975006 18.256999,23.574005 18.959025,22.67099 18.959025,22.169006 18.959025,21.768005 18.759013,21.566986 18.558024,21.165985 18.256999,20.563995 17.756022,19.460999 17.353986,18.858978z M10.533009,14.946991C9.2289944,15.046997 8.8279934,16.149994 8.3260413,16.953003 8.0250159,17.454987 7.7239905,17.955994 7.5240398,18.356995 8.4260159,18.858978 9.4300433,19.359985 10.33202,19.962006 10.93401,18.858978 11.637012,17.755005 12.238024,16.651978 12.038012,15.748993 11.637012,14.946991 10.533009,14.946991z M13.843002,14.845978C13.642991,14.946991,13.542039,14.946991,13.442002,14.946991L11.235034,14.946991C11.637012,15.046997 11.837024,15.347992 12.038012,15.648987 12.538988,16.450989 13.141038,17.654999 13.542039,18.557983 13.342027,18.759003 12.941026,18.858978 12.740038,19.059998L15.850019,19.059998C16.350995,18.156982 16.952985,17.153992 17.454999,16.250977 17.053021,16.350983 16.853009,16.651978 16.452008,16.751984 16.050031,16.250977 15.949995,15.548981 15.548994,15.147003 15.248031,14.845978 14.444992,14.845978 13.843002,14.845978z M0.7020254,10.131989L23.774022,10.131989 22.168983,29.391998C22.168983,30.897003,21.066018,32,19.662026,32L5.016047,32C3.6110189,32,2.5080538,30.79599,2.5080538,29.391998z M7.8250037,1.5050049C7.32299,1.5050049 7.0220261,1.9060059 7.0220261,2.4079895 7.0220261,2.9089966 7.4230266,3.3099976 7.8250037,3.3099976L16.65202,3.3099976C17.154035,3.3099976 17.454999,2.9089966 17.454999,2.4079895 17.454999,1.9060059 17.053021,1.5050049 16.65202,1.5050049z M7.6240154,0L16.853009,0C18.256999,0,19.361003,1.0029907,19.561013,2.4079895L21.066018,2.4079895C22.972022,2.4079895,24.577001,4.1130066,24.577001,6.118988L24.577001,7.6239929C24.577001,7.8240051,24.577001,8.125,24.477025,8.3259888L0.10101318,8.3259888C-4.2625288E-08,8.125,-4.2625288E-08,7.8240051,5.5479177E-11,7.6239929L5.5479177E-11,6.118988C-4.2625288E-08,4.0130005,1.6050398,2.4079895,3.5110436,2.4079895L5.016047,2.4079895C5.1160222,1.0029907,6.3200007,0,7.6240154,0z" />
  </g>
</svg>

