<?xml version="1.0" encoding="utf-8"?>
<svg xmlns="http://www.w3.org/2000/svg" height="24" width="24" viewBox="0 0 24 24">
  <g>
    <path id="path1" transform="rotate(0,12,12) translate(0,5.47499942779541) scale(0.75,0.75)  " fill="#000000" d="M16,5.5999984C17.699951,5.5999984 19.099976,6.9999918 19.099976,8.6999893 19.099976,10.400001 17.699951,11.799994 16,11.799994 14.299988,11.799994 12.899963,10.400001 12.899963,8.6999893 12.899963,6.9999918 14.299988,5.5999984 16,5.5999984z M16,2.1999893C12.399963,2.1999893 9.5,5.0999984 9.5,8.6999893 9.5,12.299994 12.399963,15.199988 16,15.199988 19.599976,15.199988 22.5,12.299994 22.5,8.6999893 22.5,5.0999984 19.599976,2.1999893 16,2.1999893z M16,0C24.799988,5.2249334E-08 32,8.6999893 32,8.6999893 32,8.6999893 24.799988,17.400001 16,17.400001 7.1999512,17.400001 0,8.6999893 0,8.6999893 0,8.6999893 7.1999512,5.2249334E-08 16,0z" />
  </g>
</svg>

