<?xml version="1.0" encoding="utf-8"?>
<svg xmlns="http://www.w3.org/2000/svg" height="24" width="24" viewBox="0 0 24 24">
  <g>
    <path id="path1" transform="rotate(0,12,12) translate(0.112499713897705,0) scale(0.75,0.75)  " fill="#000000" d="M13.700007,0L31.700001,0C30.799977,9.5999908,24.799978,17.199997,17.200007,18L17.200007,29.799988C23.999991,29.899994,29.299977,30.899994,29.299977,32L2.2999868,32C2.2999868,30.799988,7.5999729,29.899994,14.399958,29.799988L14.399958,18.099991C6.8999607,17.299988,0.89996285,9.6999969,0,0.099990845L9.7000086,0.099990845 7.0999729,3.8999939 9.4999964,3.8999939C9.4999964,3.8999939 8.7000086,7.6999969 6.2999851,9.6999969 12.099971,8.3999939 13.700007,3.6999969 13.700007,3.6999969L11.499995,3.7999878C11.499995,3.7999878,12.799983,1.6999969,13.700007,0z" />
  </g>
</svg>

