<?xml version="1.0" encoding="UTF-8" standalone="no"?>
<svg
   xmlns:dc="http://purl.org/dc/elements/1.1/"
   xmlns:cc="http://creativecommons.org/ns#"
   xmlns:rdf="http://www.w3.org/1999/02/22-rdf-syntax-ns#"
   xmlns:svg="http://www.w3.org/2000/svg"
   xmlns="http://www.w3.org/2000/svg"
   xmlns:sodipodi="http://sodipodi.sourceforge.net/DTD/sodipodi-0.dtd"
   xmlns:inkscape="http://www.inkscape.org/namespaces/inkscape"
   height="32"
   width="32"
   viewBox="0 0 32 32"
   version="1.1"
   id="svg7"
   sodipodi:docname="person.svg"
   inkscape:version="0.92.1 r15371">
  <metadata
     id="metadata13">
    <rdf:RDF>
      <cc:Work
         rdf:about="">
        <dc:format>image/svg+xml</dc:format>
        <dc:type
           rdf:resource="http://purl.org/dc/dcmitype/StillImage" />
      </cc:Work>
    </rdf:RDF>
  </metadata>
  <defs
     id="defs11" />
  <sodipodi:namedview
     pagecolor="#ffffff"
     bordercolor="#666666"
     borderopacity="1"
     objecttolerance="10"
     gridtolerance="10"
     guidetolerance="10"
     inkscape:pageopacity="0"
     inkscape:pageshadow="2"
     inkscape:window-width="1858"
     inkscape:window-height="1057"
     id="namedview9"
     showgrid="false"
     inkscape:zoom="14.75"
     inkscape:cx="28.860921"
     inkscape:cy="6.9397949"
     inkscape:window-x="-8"
     inkscape:window-y="-8"
     inkscape:window-maximized="1"
     inkscape:current-layer="svg7" />
  <g
     id="g5">
    <path
       d="M 16 0 A 16 16 0 0 0 0 16 A 16 16 0 0 0 16 32 A 16 16 0 0 0 32 16 A 16 16 0 0 0 16 0 z M 15.900391 8.5742188 C 18.350369 8.5742188 20.300781 10.574614 20.300781 12.974609 C 20.300781 15.424615 18.300382 17.375 15.900391 17.375 C 13.450396 17.375 11.5 15.374612 11.5 12.974609 C 11.450012 10.574614 13.450396 8.5742188 15.900391 8.5742188 z M 18.949219 17.925781 C 18.949219 17.925781 23.549988 19.025785 24 23.425781 L 8 23.425781 C 8 23.425781 9.3000068 18.625779 13.25 18.175781 L 14.300781 22.775391 L 15.099609 22.775391 L 16 20.425781 L 15.150391 18.974609 L 16.800781 18.974609 L 16 20.474609 L 17 22.775391 L 17.599609 22.775391 L 18.949219 17.925781 z "
       id="ellipse2" />
  </g>
</svg>
