<?xml version="1.0" encoding="utf-8"?>
<svg xmlns="http://www.w3.org/2000/svg" height="24" width="24" viewBox="0 0 24 24">
  <g>
    <path id="path1" transform="rotate(0,12,12) translate(0,3.91874812580612) scale(0.750000134110475,0.750000134110475)  " fill="#000000" d="M17.365998,0C19.270005,-2.0634434E-07 21.074995,0.20001155 22.878996,0.70202433 26.486996,1.604 29.493998,3.3080367 31.999995,5.8140125 30.596995,5.6130242 29.294001,5.6130242 28.091,5.913988 26.887997,6.2150125 25.785992,6.8160242 24.984005,7.6180248 23.680998,7.416975 22.378004,7.3169998 21.175001,7.5179881 19.671005,7.7179999 18.367996,8.3190121 17.365998,9.1210121L22.477995,21.249952 21.175001,21.550001 16.162997,9.4219755C14.759997,9.2220244 13.457004,9.322 12.354007,9.5220122 10.550007,9.8229756 9.0470021,10.525 7.8440149,11.426976 6.5410063,11.025976 5.2380135,11.025976 4.1350019,11.126012 3.7340162,11.126012 3.4330063,11.225988 3.0320055,11.327 1.8300102,11.626988 0.82700472,12.127963 0.025018557,12.929964 -0.17499373,9.9230122 0.82700472,7.416975 2.9320147,5.2120241 4.9370034,3.0070121 7.8440149,1.5040247 11.75301,0.60101163 13.657001,0.20001155 15.561999,-2.0634434E-07 17.365998,0z" />
  </g>
</svg>

