<?xml version="1.0" encoding="utf-8"?>
<svg xmlns="http://www.w3.org/2000/svg" height="24" width="24" viewBox="0 0 24 24">
  <g>
    <path id="path1" transform="rotate(0,12,12) translate(0,0) scale(0.75,0.75)  " fill="#000000" d="M27.099976,22.399994C26.5,22.399994 26,22.600006 25.599976,23 25.200012,23.399994 25,23.899994 25,24.399994 25,24.899994 25.200012,25.399994 25.599976,25.799988 26,26.200012 26.5,26.399994 27.099976,26.399994 27.700012,26.399994 28.099976,26.200012 28.5,25.799988 28.899963,25.399994 29.099976,25 29.099976,24.399994 29.099976,23.899994 28.899963,23.399994 28.5,23 28.200012,22.600006 27.700012,22.399994 27.099976,22.399994z M27.200012,16.700012C26.599976,16.700012 26.099976,16.899994 25.700012,17.200012 25.299988,17.600006 25.099976,18.100006 25.099976,18.600006 25.099976,19.100006 25.299988,19.600006 25.700012,20 26.099976,20.399994 26.599976,20.600006 27.099976,20.600006L27.200012,20.600006C27.700012,20.600006 28.200012,20.399994 28.599976,20 29,19.600006 29.200012,19.200012 29.200012,18.600006 29.200012,18.100006 29,17.600006 28.599976,17.200012 28.200012,16.899994 27.799988,16.700012 27.200012,16.700012z M5.8999634,10.5C3.7000122,10.5,2.5999756,11.5,2.5999756,13.600006L2.5999756,26.600006C2.5999756,28.700012,3.7000122,29.700012,5.8999634,29.700012L19.700012,29.700012C21.700012,29.700012,22.799988,28.899994,23,27.200012L23,20.600006 23,13.600006C23,11.5,21.899963,10.5,19.700012,10.5z M19.599976,0C19.799988,0 20,0.1000061 20.200012,0.20001221 20.399963,0.3999939 20.5,0.6000061 20.5,0.8999939 20.5,1.1000061 20.5,1.3999939 20.299988,1.6000061L14.299988,8.3999939 28.700012,8.3999939 28.799988,8.3999939 32,8.3999939 32,11.5 32,22 32,26.600006 32,28.899994 32,32 28.700012,32 3.2999878,32 0,32 0,8.2999878 3.2000122,8.2999878 3.2999878,8.2999878 11.599976,8.2999878 4.8999634,2.1000061C4.7000122,1.8999939 4.5999756,1.7000122 4.5999756,1.3999939 4.5999756,1.1000061 4.7000122,0.8999939 4.8999634,0.70001221 5.0999756,0.5 5.2999878,0.3999939 5.5999756,0.3999939 5.8999634,0.3999939 6.0999756,0.5 6.2999878,0.70001221L12.899963,7 18.799988,0.3999939C19,0.1000061,19.200012,0,19.599976,0z" />
  </g>
</svg>

