<?xml version="1.0" encoding="utf-8"?>
<svg xmlns="http://www.w3.org/2000/svg" height="48" width="48" viewBox="0 0 48 48">
  <g>
    <ellipse cy="24" cx="24" ry="24" rx="24" fill="#ED393E" />
    <path id="path1" transform="rotate(0,24,24) translate(14.2940783322661,11) scale(0.501962817563614,0.501962817563614)  " fill="#FFF8F8" d="M4.40625,18.1872901916504L9.609375,18.1872901916504 19.921875,41.6247901916504 20.90625,43.9802589416504 21.46875,45.6560401916504 21.609375,45.6560401916504 22.517578125,43.2419776916504 23.2265625,41.5310401916504 33.75,18.1872901916504 38.671875,18.1872901916504 38.671875,51.7966651916504 34.7578125,51.7966651916504 34.7578125,29.2497901916504 34.83984375,26.279088973999 35.0859375,22.7107276916504 34.9921875,22.7107276916504 34.458984375,24.661901473999 33.984375,25.9685401916504 22.5,51.7966651916504 20.578125,51.7966651916504 9.1171875,26.1560401916504 8.619140625,24.732213973999 8.109375,22.7107276916504 8.015625,22.7107276916504 8.15625,25.365026473999 8.203125,29.2966651916504 8.203125,51.7966651916504 4.40625,51.7966651916504 4.40625,18.1872901916504z" />
  </g>
</svg>

