<?xml version="1.0" encoding="utf-8"?>
<svg xmlns="http://www.w3.org/2000/svg" height="48" width="48" viewBox="0 0 48 48">
  <g>
    <ellipse cy="24" cx="24" ry="24" rx="24" fill="#ED393E" />
    <path id="path1" transform="rotate(0,24,24) translate(14.2940783322661,11) scale(0.250981408781807,0.250981408781807)  " fill="#FFF8F8" d="M8.8125,36.3745803833008L19.21875,36.3745803833008 39.84375,83.2495803833008 41.8125,87.9605178833008 42.9375,91.3120803833008 43.21875,91.3120803833008 45.03515625,86.4839553833008 46.453125,83.0620803833008 67.5,36.3745803833008 77.34375,36.3745803833008 77.34375,103.593330383301 69.515625,103.593330383301 69.515625,58.4995803833008 69.6796875,52.558177947998 70.171875,45.4214553833008 69.984375,45.4214553833008 68.91796875,49.323802947998 67.96875,51.9370803833008 45,103.593330383301 41.15625,103.593330383301 18.234375,52.3120803833008 17.23828125,49.464427947998 16.21875,45.4214553833008 16.03125,45.4214553833008 16.1953125,47.756420135498 16.3125,50.730052947998 16.3828125,54.342357635498 16.40625,58.5933303833008 16.40625,103.593330383301 8.8125,103.593330383301 8.8125,36.3745803833008z" />
  </g>
</svg>

